{
    "asset" : {
        "generator" : "Khronos glTF Blender I/O v3.2.43",
        "version" : "2.0"
    },
    "scene" : 0,
    "scenes" : [
        {
            "name" : "Scene",
            "nodes" : [
                0,
                1,
                2,
                3,
                4,
                5
            ]
        }
    ],
    "nodes" : [
        {
            "mesh" : 0,
            "name" : "Cube",
            "rotation" : [
                -0.1238965094089508,
                0,
                0,
                0.9922951459884644
            ],
            "translation" : [
                0,
                -0.5112264156341553,
                0.6243643760681152
            ]
        },
        {
            "name" : "Empty",
            "rotation" : [
                0.5,
                0.5,
                -0.5,
                0.5
            ],
            "scale" : [
                1.1639769077301025,
                1.1639769077301025,
                1.1639769077301025
            ],
            "translation" : [
                0,
                0.422219842672348,
                -0.050666384398937225
            ]
        },
        {
            "name" : "Empty.001",
            "rotation" : [
                0,
                -0.7007617950439453,
                0,
                0.713395357131958
            ],
            "scale" : [
                1.0077571868896484,
                1.0077570676803589,
                1.0077571868896484
            ],
            "translation" : [
                -0.7704532742500305,
                -2.539418935775757,
                -6.793997764587402
            ]
        },
        {
            "mesh" : 1,
            "name" : "Cube.001",
            "rotation" : [
                -0.33856675028800964,
                -0.6172199249267578,
                -0.46368488669395447,
                0.5379669070243835
            ],
            "scale" : [
                0.13371577858924866,
                0.13371577858924866,
                0.13371577858924866
            ],
            "translation" : [
                1.7343804836273193,
                2.240231513977051,
                5.3025712966918945
            ]
        },
        {
            "name" : "Empty.002",
            "rotation" : [
                0.5,
                0.5,
                -0.5,
                0.5
            ],
            "scale" : [
                2.690633773803711,
                2.690633773803711,
                2.690633773803711
            ],
            "translation" : [
                0,
                -0.24434015154838562,
                1.8814191818237305
            ]
        },
        {
            "mesh" : 2,
            "name" : "Sphere",
            "scale" : [
                0.13502807915210724,
                0.13502807915210724,
                0.13502807915210724
            ],
            "translation" : [
                0.3970446288585663,
                2.072998046875,
                8.757051467895508
            ]
        }
    ],
    "materials" : [
        {
            "doubleSided" : true,
            "name" : "Material",
            "pbrMetallicRoughness" : {
                "baseColorFactor" : [
                    0.800000011920929,
                    0.800000011920929,
                    0.800000011920929,
                    1
                ],
                "metallicFactor" : 0,
                "roughnessFactor" : 0.4000000059604645
            }
        }
    ],
    "meshes" : [
        {
            "name" : "Cube",
            "primitives" : [
                {
                    "attributes" : {
                        "POSITION" : 0,
                        "NORMAL" : 1,
                        "TEXCOORD_0" : 2
                    },
                    "indices" : 3,
                    "material" : 0
                }
            ]
        },
        {
            "name" : "Cube.001",
            "primitives" : [
                {
                    "attributes" : {
                        "POSITION" : 4,
                        "NORMAL" : 5,
                        "TEXCOORD_0" : 6
                    },
                    "indices" : 7
                }
            ]
        },
        {
            "name" : "Sphere",
            "primitives" : [
                {
                    "attributes" : {
                        "POSITION" : 8,
                        "NORMAL" : 9,
                        "TEXCOORD_0" : 10
                    },
                    "indices" : 11
                }
            ]
        }
    ],
    "accessors" : [
        {
            "bufferView" : 0,
            "componentType" : 5126,
            "count" : 5824,
            "max" : [
                1.370571255683899,
                1.1805756092071533,
                10.086122512817383
            ],
            "min" : [
                -1.370571255683899,
                -5.441742420196533,
                -9.16314697265625
            ],
            "type" : "VEC3"
        },
        {
            "bufferView" : 1,
            "componentType" : 5126,
            "count" : 5824,
            "type" : "VEC3"
        },
        {
            "bufferView" : 2,
            "componentType" : 5126,
            "count" : 5824,
            "type" : "VEC2"
        },
        {
            "bufferView" : 3,
            "componentType" : 5123,
            "count" : 8736,
            "type" : "SCALAR"
        },
        {
            "bufferView" : 4,
            "componentType" : 5126,
            "count" : 8912,
            "max" : [
                18.80211639404297,
                31.120676040649414,
                29.050731658935547
            ],
            "min" : [
                -3.8589587211608887,
                -58.36399459838867,
                -32.513179779052734
            ],
            "type" : "VEC3"
        },
        {
            "bufferView" : 5,
            "componentType" : 5126,
            "count" : 8912,
            "type" : "VEC3"
        },
        {
            "bufferView" : 6,
            "componentType" : 5126,
            "count" : 8912,
            "type" : "VEC2"
        },
        {
            "bufferView" : 7,
            "componentType" : 5123,
            "count" : 13368,
            "type" : "SCALAR"
        },
        {
            "bufferView" : 8,
            "componentType" : 5126,
            "count" : 1118,
            "max" : [
                0.9999997019767761,
                1.0000019073486328,
                0.9999994039535522
            ],
            "min" : [
                -6.880918979644775,
                -1,
                -0.9999987483024597
            ],
            "type" : "VEC3"
        },
        {
            "bufferView" : 9,
            "componentType" : 5126,
            "count" : 1118,
            "type" : "VEC3"
        },
        {
            "bufferView" : 10,
            "componentType" : 5126,
            "count" : 1118,
            "type" : "VEC2"
        },
        {
            "bufferView" : 11,
            "componentType" : 5123,
            "count" : 5760,
            "type" : "SCALAR"
        }
    ],
    "bufferViews" : [
        {
            "buffer" : 0,
            "byteLength" : 69888,
            "byteOffset" : 0
        },
        {
            "buffer" : 0,
            "byteLength" : 69888,
            "byteOffset" : 69888
        },
        {
            "buffer" : 0,
            "byteLength" : 46592,
            "byteOffset" : 139776
        },
        {
            "buffer" : 0,
            "byteLength" : 17472,
            "byteOffset" : 186368
        },
        {
            "buffer" : 0,
            "byteLength" : 106944,
            "byteOffset" : 203840
        },
        {
            "buffer" : 0,
            "byteLength" : 106944,
            "byteOffset" : 310784
        },
        {
            "buffer" : 0,
            "byteLength" : 71296,
            "byteOffset" : 417728
        },
        {
            "buffer" : 0,
            "byteLength" : 26736,
            "byteOffset" : 489024
        },
        {
            "buffer" : 0,
            "byteLength" : 13416,
            "byteOffset" : 515760
        },
        {
            "buffer" : 0,
            "byteLength" : 13416,
            "byteOffset" : 529176
        },
        {
            "buffer" : 0,
            "byteLength" : 8944,
            "byteOffset" : 542592
        },
        {
            "buffer" : 0,
            "byteLength" : 11520,
            "byteOffset" : 551536
        }
    ],
    "buffers" : [
        {
            "byteLength" : 563056,
            "uri" : "data:application/octet-stream;base64,"
        }
    ]
}
